<svg xmlns="http://www.w3.org/2000/svg" viewBox="0 0 800 800" fill="none">
  <defs>
    <filter id="grain">
      <feTurbulence type="fractalNoise" baseFrequency="0.78" numOctaves="2" stitchTiles="stitch"/>
      <feColorMatrix type="saturate" values="0"/>
      <feComponentTransfer>
        <feFuncA type="table" tableValues="0 0.05"/>
      </feComponentTransfer>
    </filter>
  </defs>
  <rect x="28" y="28" width="744" height="744" stroke="#D91919" stroke-width="8"/>
  <path d="M100 116H700" stroke="#111111" stroke-width="12"/>
  <path d="M400 88V712" stroke="#111111" stroke-opacity=".18" stroke-width="2"/>
  <path d="M88 400H712" stroke="#111111" stroke-opacity=".18" stroke-width="2"/>
  <g fill="#111111" fill-opacity=".05" stroke="#111111" stroke-linecap="round" stroke-linejoin="round">
    <path d="M240 598L564 220L598 252L278 634Z" stroke-width="10"/>
    <path d="M226 612L248 590L266 652L206 672Z" stroke-width="8"/>
    <path d="M564 220L578 164L618 134L608 188L592 238Z" stroke-width="8"/>
    <circle cx="334" cy="528" r="10" stroke-width="6"/>
    <circle cx="368" cy="490" r="10" stroke-width="6"/>
    <circle cx="404" cy="448" r="10" stroke-width="6"/>
    <circle cx="438" cy="410" r="10" stroke-width="6"/>
    <circle cx="472" cy="370" r="10" stroke-width="6"/>
    <circle cx="506" cy="330" r="10" stroke-width="6"/>
    <path d="M358 548L388 516" stroke="#D91919" stroke-width="6"/>
    <path d="M432 462L462 430" stroke="#D91919" stroke-width="6"/>
    <path d="M506 376L536 344" stroke="#D91919" stroke-width="6"/>
    <path d="M264 620L582 246" stroke-width="3"/>
  </g>
  <rect x="86" y="86" width="628" height="628" filter="url(#grain)"/>
</svg>
